<svg xmlns="http://www.w3.org/2000/svg" version="1.1" xmlns:xlink="http://www.w3.org/1999/xlink" xmlns:svgjs="http://svgjs.dev/svgjs" width="1440" height="560" preserveAspectRatio="none" viewBox="0 0 1440 560"><g mask="url(&quot;#SvgjsMask2616&quot;)" fill="none"><rect width="1440" height="560" x="0" y="0" fill="rgba(13, 55, 94, 1)"></rect><path d="M45.52 -30.22L96.62 -0.72L96.62 58.28L45.52 87.78L-5.58 58.28L-5.58 -0.72zM96.62 235.28L147.71 264.78L147.71 323.78L96.62 353.28L45.52 323.78L45.52 264.78zM147.71 -30.22L198.81 -0.72L198.81 58.28L147.71 87.78L96.62 58.28L96.62 -0.72zM147.71 146.78L198.81 176.28L198.81 235.28L147.71 264.78L96.62 235.28L96.62 176.28zM198.81 235.28L249.91 264.78L249.91 323.78L198.81 353.28L147.71 323.78L147.71 264.78zM147.71 323.78L198.81 353.28L198.81 412.28L147.71 441.78L96.62 412.28L96.62 353.28zM249.91 -30.22L301 -0.72L301 58.28L249.91 87.78L198.81 58.28L198.81 -0.72zM301 235.28L352.1 264.78L352.1 323.78L301 353.28L249.91 323.78L249.91 264.78zM249.91 323.78L301 353.28L301 412.28L249.91 441.78L198.81 412.28L198.81 353.28zM403.2 58.28L454.3 87.78L454.3 146.78L403.2 176.28L352.1 146.78L352.1 87.78zM403.2 412.28L454.3 441.78L454.3 500.78L403.2 530.28L352.1 500.78L352.1 441.78zM352.1 500.78L403.2 530.28L403.2 589.28L352.1 618.78L301 589.28L301 530.28zM505.39 235.28L556.49 264.78L556.49 323.78L505.39 353.28L454.3 323.78L454.3 264.78zM454.3 323.78L505.39 353.28L505.39 412.28L454.3 441.78L403.2 412.28L403.2 353.28zM505.39 412.28L556.49 441.78L556.49 500.78L505.39 530.28L454.3 500.78L454.3 441.78zM454.3 500.78L505.39 530.28L505.39 589.28L454.3 618.78L403.2 589.28L403.2 530.28zM607.59 58.28L658.68 87.78L658.68 146.78L607.59 176.28L556.49 146.78L556.49 87.78zM556.49 146.78L607.59 176.28L607.59 235.28L556.49 264.78L505.39 235.28L505.39 176.28zM607.59 235.28L658.68 264.78L658.68 323.78L607.59 353.28L556.49 323.78L556.49 264.78zM556.49 323.78L607.59 353.28L607.59 412.28L556.49 441.78L505.39 412.28L505.39 353.28zM658.68 -30.22L709.78 -0.72L709.78 58.28L658.68 87.78L607.59 58.28L607.59 -0.72zM709.78 412.28L760.88 441.78L760.88 500.78L709.78 530.28L658.68 500.78L658.68 441.78zM658.68 500.78L709.78 530.28L709.78 589.28L658.68 618.78L607.59 589.28L607.59 530.28zM811.97 58.28L863.07 87.78L863.07 146.78L811.97 176.28L760.88 146.78L760.88 87.78zM760.88 146.78L811.97 176.28L811.97 235.28L760.88 264.78L709.78 235.28L709.78 176.28zM760.88 500.78L811.97 530.28L811.97 589.28L760.88 618.78L709.78 589.28L709.78 530.28zM914.17 58.28L965.27 87.78L965.27 146.78L914.17 176.28L863.07 146.78L863.07 87.78zM863.07 500.78L914.17 530.28L914.17 589.28L863.07 618.78L811.97 589.28L811.97 530.28zM965.27 -30.22L1016.36 -0.72L1016.36 58.28L965.27 87.78L914.17 58.28L914.17 -0.72zM965.27 146.78L1016.36 176.28L1016.36 235.28L965.27 264.78L914.17 235.28L914.17 176.28zM1016.36 412.28L1067.46 441.78L1067.46 500.78L1016.36 530.28L965.27 500.78L965.27 441.78zM965.27 500.78L1016.36 530.28L1016.36 589.28L965.27 618.78L914.17 589.28L914.17 530.28zM1118.56 235.28L1169.65 264.78L1169.65 323.78L1118.56 353.28L1067.46 323.78L1067.46 264.78zM1118.56 412.28L1169.65 441.78L1169.65 500.78L1118.56 530.28L1067.46 500.78L1067.46 441.78zM1067.46 500.78L1118.56 530.28L1118.56 589.28L1067.46 618.78L1016.36 589.28L1016.36 530.28zM1220.75 58.28L1271.85 87.78L1271.85 146.78L1220.75 176.28L1169.65 146.78L1169.65 87.78zM1220.75 235.28L1271.85 264.78L1271.85 323.78L1220.75 353.28L1169.65 323.78L1169.65 264.78zM1169.65 323.78L1220.75 353.28L1220.75 412.28L1169.65 441.78L1118.56 412.28L1118.56 353.28zM1220.75 412.28L1271.85 441.78L1271.85 500.78L1220.75 530.28L1169.65 500.78L1169.65 441.78zM1271.85 146.78L1322.94 176.28L1322.94 235.28L1271.85 264.78L1220.75 235.28L1220.75 176.28zM1322.94 235.28L1374.04 264.78L1374.04 323.78L1322.94 353.28L1271.85 323.78L1271.85 264.78zM1425.14 58.28L1476.23 87.78L1476.23 146.78L1425.14 176.28L1374.04 146.78L1374.04 87.78zM1374.04 146.78L1425.14 176.28L1425.14 235.28L1374.04 264.78L1322.94 235.28L1322.94 176.28zM1425.14 235.28L1476.23 264.78L1476.23 323.78L1425.14 353.28L1374.04 323.78L1374.04 264.78zM1374.04 323.78L1425.14 353.28L1425.14 412.28L1374.04 441.78L1322.94 412.28L1322.94 353.28zM1527.33 58.28L1578.43 87.78L1578.43 146.78L1527.33 176.28L1476.23 146.78L1476.23 87.78zM1476.23 146.78L1527.33 176.28L1527.33 235.28L1476.23 264.78L1425.14 235.28L1425.14 176.28zM1527.33 412.28L1578.43 441.78L1578.43 500.78L1527.33 530.28L1476.23 500.78L1476.23 441.78zM1476.23 500.78L1527.33 530.28L1527.33 589.28L1476.23 618.78L1425.14 589.28L1425.14 530.28z" stroke="url(&quot;#SvgjsLinearGradient2617&quot;)" stroke-width="2"></path></g><defs><mask id="SvgjsMask2616"><rect width="1440" height="560" fill="#ffffff"></rect></mask><linearGradient x1="1219.9679999999998" y1="-220.02399999999997" x2="220.03199999999998" y2="780.024" gradientUnits="userSpaceOnUse" id="SvgjsLinearGradient2617"><stop stop-color="rgba(245, 159, 0, 1)" offset="0"></stop><stop stop-color="rgba(128, 66, 0, 1)" offset="0.23"></stop><stop stop-color="rgba(13, 65, 118, 1)" offset="1"></stop></linearGradient></defs></svg>