<svg xmlns="http://www.w3.org/2000/svg" version="1.1" xmlns:xlink="http://www.w3.org/1999/xlink" xmlns:svgjs="http://svgjs.dev/svgjs" width="1440" height="560" preserveAspectRatio="none" viewBox="0 0 1440 560"><g mask="url(&quot;#SvgjsMask1562&quot;)" fill="none"><rect width="1440" height="560" x="0" y="0" fill="rgba(13, 55, 94, 1)"></rect><path d="M41.77 -77.52L109.32 -38.52L109.32 39.48L41.77 78.48L-25.78 39.48L-25.78 -38.52zM109.32 39.48L176.87 78.48L176.87 156.48L109.32 195.48L41.77 156.48L41.77 78.48zM109.32 273.48L176.87 312.48L176.87 390.48L109.32 429.48L41.77 390.48L41.77 312.48zM176.87 156.48L244.43 195.48L244.43 273.48L176.87 312.48L109.32 273.48L109.32 195.48zM244.43 273.48L311.98 312.48L311.98 390.48L244.43 429.48L176.87 390.48L176.87 312.48zM379.53 507.48L447.08 546.48L447.08 624.48L379.53 663.48L311.98 624.48L311.98 546.48zM514.63 39.48L582.19 78.48L582.19 156.48L514.63 195.48L447.08 156.48L447.08 78.48zM447.08 156.48L514.63 195.48L514.63 273.48L447.08 312.48L379.53 273.48L379.53 195.48zM582.19 156.48L649.74 195.48L649.74 273.48L582.19 312.48L514.63 273.48L514.63 195.48zM582.19 390.48L649.74 429.48L649.74 507.48L582.19 546.48L514.63 507.48L514.63 429.48zM784.84 39.48L852.39 78.48L852.39 156.48L784.84 195.48L717.29 156.48L717.29 78.48zM784.84 273.48L852.39 312.48L852.39 390.48L784.84 429.48L717.29 390.48L717.29 312.48zM717.29 390.48L784.84 429.48L784.84 507.48L717.29 546.48L649.74 507.48L649.74 429.48zM919.94 39.48L987.5 78.48L987.5 156.48L919.94 195.48L852.39 156.48L852.39 78.48zM919.94 273.48L987.5 312.48L987.5 390.48L919.94 429.48L852.39 390.48L852.39 312.48zM919.94 507.48L987.5 546.48L987.5 624.48L919.94 663.48L852.39 624.48L852.39 546.48zM987.5 -77.52L1055.05 -38.52L1055.05 39.48L987.5 78.48L919.94 39.48L919.94 -38.52zM1055.05 39.48L1122.6 78.48L1122.6 156.48L1055.05 195.48L987.5 156.48L987.5 78.48zM987.5 156.48L1055.05 195.48L1055.05 273.48L987.5 312.48L919.94 273.48L919.94 195.48zM1055.05 507.48L1122.6 546.48L1122.6 624.48L1055.05 663.48L987.5 624.48L987.5 546.48zM1122.6 -77.52L1190.15 -38.52L1190.15 39.48L1122.6 78.48L1055.05 39.48L1055.05 -38.52zM1190.15 39.48L1257.7 78.48L1257.7 156.48L1190.15 195.48L1122.6 156.48L1122.6 78.48zM1122.6 156.48L1190.15 195.48L1190.15 273.48L1122.6 312.48L1055.05 273.48L1055.05 195.48zM1190.15 507.48L1257.7 546.48L1257.7 624.48L1190.15 663.48L1122.6 624.48L1122.6 546.48zM1325.26 39.48L1392.81 78.48L1392.81 156.48L1325.26 195.48L1257.7 156.48L1257.7 78.48zM1325.26 273.48L1392.81 312.48L1392.81 390.48L1325.26 429.48L1257.7 390.48L1257.7 312.48zM1257.7 390.48L1325.26 429.48L1325.26 507.48L1257.7 546.48L1190.15 507.48L1190.15 429.48zM1392.81 -77.52L1460.36 -38.52L1460.36 39.48L1392.81 78.48L1325.26 39.48L1325.26 -38.52zM1460.36 507.48L1527.91 546.48L1527.91 624.48L1460.36 663.48L1392.81 624.48L1392.81 546.48z" stroke="url(&quot;#SvgjsLinearGradient1563&quot;)" stroke-width="2"></path></g><defs><mask id="SvgjsMask1562"><rect width="1440" height="560" fill="#ffffff"></rect></mask><linearGradient x1="220.03199999999998" y1="-220.02399999999997" x2="1219.9679999999998" y2="780.024" gradientUnits="userSpaceOnUse" id="SvgjsLinearGradient1563"><stop stop-color="rgba(28, 126, 214, 1)" offset="0"></stop><stop stop-color="rgba(17, 70, 120, 1)" offset="0.38"></stop><stop stop-color="rgba(13, 65, 118, 1)" offset="1"></stop></linearGradient></defs></svg>