<svg width="364" height="95" viewBox="0 0 364 95" fill="none" xmlns="http://www.w3.org/2000/svg">
<path d="M31.9953 11.516V23.292C31.9953 25.66 30.2673 27.452 27.9633 27.836V27.964C30.2673 28.348 31.9953 30.14 31.9953 32.508V44.284C31.9953 50.3 28.7313 53.5 22.7153 53.5H7.35526C6.71526 53.5 6.33126 53.116 6.33126 52.476V3.324C6.33126 2.62 6.71526 2.3 7.35526 2.3H22.7153C28.7313 2.3 31.9953 5.5 31.9953 11.516ZM23.4833 21.18V13.308C23.4833 11.644 22.6513 10.748 20.9233 10.748H15.0993V23.676H20.9233C22.5873 23.676 23.4833 22.78 23.4833 21.18ZM23.4833 42.492V34.684C23.4833 33.02 22.6513 32.124 20.9233 32.124H15.0993V45.052H20.9233C22.5873 45.052 23.4833 44.22 23.4833 42.492ZM47.8978 45.052H60.5698C61.2738 45.052 61.5938 45.436 61.5938 46.076V52.476C61.5938 53.18 61.2738 53.5 60.5698 53.5H40.2178C39.5778 53.5 39.1938 53.18 39.1938 52.476V9.724C39.1938 9.084 39.5778 8.7 40.2178 8.7H46.8738C47.5778 8.7 47.8978 9.084 47.8978 9.724V45.052ZM85.9883 8.7H91.8763C92.5803 8.7 93.1563 9.276 93.1563 9.98V44.284C93.1563 50.3 89.9563 53.5 83.9403 53.5H76.7723C70.7563 53.5 67.5563 50.3 67.5563 44.284V9.98C67.5563 9.276 68.1323 8.7 68.8363 8.7H74.9803C75.6843 8.7 76.2603 9.276 76.2603 9.98V42.492C76.2603 44.22 77.1563 45.052 78.8203 45.052H82.1483C83.8123 45.052 84.7083 44.22 84.7083 42.492V9.98C84.7083 9.276 85.2843 8.7 85.9883 8.7ZM125.892 9.724V16.124C125.892 16.764 125.636 17.212 124.868 17.212H109.06V27.068H121.092C121.732 27.068 122.116 27.452 122.116 28.156V34.492C122.116 35.196 121.732 35.58 121.092 35.58H109.06V45.052H124.868C125.636 45.052 125.892 45.372 125.892 46.076V52.476C125.892 53.116 125.636 53.5 124.868 53.5H101.316C100.74 53.5 100.356 53.116 100.356 52.476V9.724C100.356 9.084 100.74 8.7 101.316 8.7H124.868C125.636 8.7 125.892 9.084 125.892 9.724ZM166.79 23.676V3.324C166.79 2.684 167.174 2.3 167.814 2.3H174.406C175.174 2.3 175.494 2.684 175.494 3.324V52.476C175.494 53.116 175.174 53.5 174.406 53.5H167.814C167.174 53.5 166.79 53.116 166.79 52.476V32.124H158.598V52.476C158.598 53.116 158.214 53.5 157.574 53.5H150.982C150.214 53.5 149.894 53.116 149.894 52.476V3.324C149.894 2.684 150.214 2.3 150.982 2.3H157.574C158.214 2.3 158.598 2.684 158.598 3.324V23.676H166.79ZM182.694 44.284V17.916C182.694 11.9 185.894 8.7 191.91 8.7H199.078C205.094 8.7 208.294 11.9 208.294 17.916V44.284C208.294 50.3 205.094 53.5 199.078 53.5H191.91C185.894 53.5 182.694 50.3 182.694 44.284ZM193.574 45.244H197.67C199.334 45.244 200.23 44.412 200.23 42.684V19.516C200.23 17.852 199.334 16.956 197.67 16.956H193.574C191.91 16.956 191.014 17.852 191.014 19.516V42.684C191.014 44.412 191.91 45.244 193.574 45.244ZM241.094 17.916V30.78C241.094 34.492 239.878 37.116 237.51 38.588L240.838 52.348C241.03 53.116 240.646 53.5 239.942 53.5H233.67C233.03 53.5 232.71 53.18 232.582 52.604L229.51 39.996H223.814V52.476C223.814 53.116 223.43 53.5 222.79 53.5H216.518C215.878 53.5 215.494 53.116 215.494 52.476V9.724C215.494 9.084 215.878 8.7 216.518 8.7H231.878C237.894 8.7 241.094 11.9 241.094 17.916ZM223.814 31.74H230.214C231.878 31.74 232.774 30.844 232.774 29.18V19.516C232.774 17.852 231.878 16.956 230.214 16.956H223.814V31.74ZM249.318 53.5C248.614 53.5 248.294 53.116 248.294 52.476V9.724C248.294 9.084 248.614 8.7 249.318 8.7H255.974C256.614 8.7 256.998 9.084 256.998 9.724V52.476C256.998 53.116 256.614 53.5 255.974 53.5H249.318ZM266.267 8.7H290.523C291.547 8.7 291.931 9.34 291.483 10.236L275.163 45.628H289.179C289.819 45.628 290.203 45.948 290.203 46.652V52.412C290.203 53.052 289.819 53.436 289.179 53.5H264.091C263.067 53.5 262.683 52.86 263.131 51.964L279.451 17.148H266.267C265.627 17.148 265.243 16.764 265.243 16.124V9.788C265.243 9.084 265.627 8.764 266.267 8.7ZM297.519 44.284V17.916C297.519 11.9 300.719 8.7 306.735 8.7H313.903C319.919 8.7 323.119 11.9 323.119 17.916V44.284C323.119 50.3 319.919 53.5 313.903 53.5H306.735C300.719 53.5 297.519 50.3 297.519 44.284ZM308.399 45.244H312.495C314.159 45.244 315.055 44.412 315.055 42.684V19.516C315.055 17.852 314.159 16.956 312.495 16.956H308.399C306.735 16.956 305.839 17.852 305.839 19.516V42.684C305.839 44.412 306.735 45.244 308.399 45.244ZM350.607 8.7H356.623C357.263 8.7 357.647 9.084 357.647 9.724V52.476C357.647 53.116 357.263 53.5 356.623 53.5H351.567C350.991 53.5 350.671 53.244 350.415 52.668L338.383 28.22V52.476C338.383 53.116 338.063 53.5 337.359 53.5H331.343C330.703 53.5 330.319 53.116 330.319 52.476V9.724C330.319 9.084 330.703 8.7 331.343 8.7H336.399C336.975 8.7 337.295 8.956 337.551 9.532L349.583 33.98V9.724C349.583 9.084 349.903 8.7 350.607 8.7Z" fill="white"/>
<path d="M121.411 88.276H129.027C129.379 88.276 129.539 88.468 129.539 88.788V91.988C129.539 92.34 129.379 92.5 129.027 92.5H117.571C117.251 92.5 117.059 92.34 117.059 91.988V67.412C117.059 67.092 117.251 66.9 117.571 66.9H120.899C121.251 66.9 121.411 67.092 121.411 67.412V88.276ZM133.847 87.892V74.708C133.847 71.7 135.447 70.1 138.455 70.1H142.039C145.047 70.1 146.647 71.7 146.647 74.708V87.892C146.647 90.9 145.047 92.5 142.039 92.5H138.455C135.447 92.5 133.847 90.9 133.847 87.892ZM139.287 88.372H141.335C142.167 88.372 142.615 87.956 142.615 87.092V75.508C142.615 74.676 142.167 74.228 141.335 74.228H139.287C138.455 74.228 138.007 74.676 138.007 75.508V87.092C138.007 87.956 138.455 88.372 139.287 88.372ZM150.947 87.892V74.708C150.947 71.7 152.547 70.1 155.555 70.1H159.139C162.115 70.1 163.747 71.7 163.747 74.708V77.076C163.747 77.396 163.555 77.588 163.235 77.588H160.227C159.875 77.588 159.715 77.396 159.715 77.076V75.508C159.715 74.676 159.267 74.228 158.435 74.228H156.387C155.523 74.228 155.107 74.676 155.107 75.508V87.092C155.107 87.956 155.555 88.372 156.387 88.372H158.435C159.267 88.372 159.715 87.956 159.715 87.092V84.308H158.051C157.699 84.308 157.539 84.116 157.539 83.796V80.596C157.539 80.244 157.699 80.084 158.051 80.084H163.235C163.555 80.084 163.747 80.244 163.747 80.596V87.892C163.747 90.9 162.115 92.5 159.139 92.5H155.555C152.547 92.5 150.947 90.9 150.947 87.892ZM168.559 92.5C168.207 92.5 168.047 92.308 168.047 91.988V70.612C168.047 70.292 168.207 70.1 168.559 70.1H171.887C172.207 70.1 172.399 70.292 172.399 70.612V91.988C172.399 92.308 172.207 92.5 171.887 92.5H168.559ZM181.317 70.1H184.901C187.909 70.1 189.509 71.7 189.509 74.708V76.82C189.509 77.14 189.349 77.332 188.997 77.332H185.765C185.445 77.332 185.253 77.14 185.253 76.82V75.476C185.253 74.644 184.837 74.196 183.973 74.196H182.213C181.413 74.196 180.933 74.644 180.933 75.476V78.196L188.677 80.692C189.221 80.884 189.509 81.268 189.509 81.876V87.892C189.509 90.9 187.909 92.5 184.901 92.5H181.317C178.341 92.5 176.709 90.9 176.709 87.892V85.812C176.709 85.46 176.901 85.3 177.221 85.3H180.453C180.805 85.3 180.965 85.46 180.965 85.812V87.156C180.965 88.02 181.445 88.436 182.245 88.436H183.973C184.805 88.436 185.253 88.02 185.253 87.156V83.924L177.573 81.428C176.997 81.236 176.709 80.852 176.709 80.244V74.708C176.709 71.7 178.341 70.1 181.317 70.1ZM204.489 70.1C204.841 70.1 205.001 70.292 205.001 70.612V73.812C205.001 74.132 204.841 74.324 204.489 74.324H200.777V91.988C200.777 92.34 200.617 92.5 200.265 92.5H196.937C196.617 92.5 196.425 92.34 196.425 91.988V74.324H192.713C192.393 74.324 192.201 74.132 192.201 73.812V70.612C192.201 70.292 192.393 70.1 192.713 70.1H204.489ZM208.859 92.5C208.507 92.5 208.347 92.308 208.347 91.988V70.612C208.347 70.292 208.507 70.1 208.859 70.1H212.187C212.507 70.1 212.699 70.292 212.699 70.612V91.988C212.699 92.308 212.507 92.5 212.187 92.5H208.859ZM229.841 74.708V78.164C229.841 78.484 229.649 78.676 229.329 78.676H226.321C225.969 78.676 225.809 78.484 225.809 78.164V75.54C225.809 74.708 225.361 74.26 224.529 74.26H222.481C221.617 74.26 221.201 74.708 221.201 75.54V87.156C221.201 88.02 221.649 88.436 222.481 88.436H224.529C225.361 88.436 225.809 88.02 225.809 87.156V84.436C225.809 84.116 225.969 83.924 226.321 83.924H229.329C229.649 83.924 229.841 84.116 229.841 84.436V87.892C229.841 90.9 228.209 92.5 225.233 92.5H221.649C218.641 92.5 217.009 90.9 217.009 87.892V74.708C217.009 71.7 218.641 70.1 221.649 70.1H225.233C228.209 70.1 229.841 71.7 229.841 74.708ZM238.749 70.1H242.333C245.341 70.1 246.941 71.7 246.941 74.708V76.82C246.941 77.14 246.781 77.332 246.429 77.332H243.197C242.877 77.332 242.685 77.14 242.685 76.82V75.476C242.685 74.644 242.269 74.196 241.405 74.196H239.645C238.845 74.196 238.365 74.644 238.365 75.476V78.196L246.109 80.692C246.653 80.884 246.941 81.268 246.941 81.876V87.892C246.941 90.9 245.341 92.5 242.333 92.5H238.749C235.773 92.5 234.141 90.9 234.141 87.892V85.812C234.141 85.46 234.333 85.3 234.653 85.3H237.885C238.237 85.3 238.397 85.46 238.397 85.812V87.156C238.397 88.02 238.877 88.436 239.677 88.436H241.405C242.237 88.436 242.685 88.02 242.685 87.156V83.924L235.005 81.428C234.429 81.236 234.141 80.852 234.141 80.244V74.708C234.141 71.7 235.773 70.1 238.749 70.1Z" fill="white"/>
</svg>
